<?xml version="1.0" encoding="UTF-8"?>
<svg id="Capa_1" xmlns="http://www.w3.org/2000/svg" width="506.329" height="506.329" viewBox="0 0 506.329 506.329">
  <circle cx="253.165" cy="253.165" r="253.165" fill="#162b25"/>
  <path d="M350.986,207.841c-5.884-11.146-12.41-22.896-19.392-34.919-11.494-19.814-24.311-40.624-38.092-61.844-4.294-6.619-8.522-13.023-12.55-19.008-1.345-2.007-2.545-3.782-3.554-5.253-.629-.925-1.086-1.593-1.353-1.972l-22.881-33.136-22.884,33.138c-.261.371-.716,1.037-1.316,1.922-1.043,1.52-2.244,3.295-3.572,5.278-4.02,5.973-8.247,12.376-12.563,19.027-13.793,21.24-26.611,42.05-38.091,61.843-6.987,12.029-13.513,23.78-19.396,34.924-26.413,50.017-38.714,85.048-38.714,110.247,0,75.287,61.25,136.536,136.536,136.536s136.536-61.249,136.536-136.536c0-25.2-12.302-60.231-38.714-110.245ZM180.561,221.155c5.706-10.808,12.043-22.219,18.842-33.924,11.246-19.388,23.811-39.785,37.347-60.631,4.232-6.522,8.372-12.791,12.319-18.658,1.278-1.908,2.417-3.594,3.443-5.087.253-.373.471-.693.653-.96.187.273.414.609.687,1.008.991,1.445,2.13,3.131,3.425,5.063,3.955,5.878,8.094,12.147,12.305,18.638,13.526,20.827,26.09,41.224,37.349,60.633,6.794,11.699,13.132,23.11,18.838,33.917v.002c23.5,44.498,35.415,77.11,35.415,96.929,0,16.976-3.942,33.048-10.95,47.355.387-3.523.592-7.101.592-10.726,0-17.954-8.557-42.52-26.929-77.309-4.033-7.64-8.514-15.709-13.315-23.976-7.879-13.581-16.661-27.841-26.1-42.375-2.943-4.536-5.841-8.924-8.593-13.013-.926-1.385-1.755-2.609-2.479-3.664-.42-.617-.729-1.069-.915-1.335l-19.328-27.991-19.33,27.99c-.187.266-.496.719-.921,1.342-.719,1.047-1.544,2.269-2.454,3.628-2.772,4.119-5.67,8.507-8.61,13.039-9.45,14.553-18.232,28.812-26.098,42.373-4.795,8.256-9.276,16.324-13.318,23.98-18.373,34.792-26.931,59.358-26.931,77.312,0,3.624.205,7.201.591,10.723-7.007-14.307-10.949-30.377-10.949-47.352,0-19.819,11.915-52.43,35.414-96.931ZM316.44,382.537c-1.443-10.802-6.592-24.235-16.201-42.433h0c-2.435-4.613-5.131-9.466-8.006-14.419-4.713-8.124-9.972-16.663-15.629-25.376-1.754-2.703-3.491-5.332-5.142-7.786-.563-.842-1.067-1.587-1.47-2.174-.266-.391-.468-.684-.599-.873l-16.227-23.501-16.235,23.507c-.122.175-.318.461-.56.816-.435.635-.936,1.376-1.484,2.195-1.653,2.457-3.39,5.087-5.158,7.811-5.652,8.703-10.911,17.242-15.627,25.373-2.881,4.959-5.576,9.813-8.011,14.425-9.61,18.197-14.76,31.631-16.203,42.434-3.761-8.519-5.865-17.927-5.865-27.822,0-12.772,7.95-34.304,23.631-63.996,3.865-7.319,8.157-15.048,12.765-22.98,7.631-13.156,16.16-27.003,25.354-41.161,2.516-3.877,4.993-7.637,7.393-11.22,2.391,3.57,4.874,7.338,7.395,11.224,9.182,14.139,17.712,27.986,25.355,41.163,4.612,7.942,8.905,15.671,12.759,22.972l.002.003c15.679,29.691,23.63,51.222,23.63,63.994,0,9.895-2.105,19.303-5.865,27.822ZM251.356,423.81c-18.571-.944-33.389-16.35-33.389-35.151,0-3.725,1.733-13.257,13.343-35.241,2.256-4.274,4.763-8.788,7.456-13.424,4.346-7.494,9.188-15.367,14.398-23.414,5.216,8.058,10.058,15.932,14.402,23.42,2.688,4.63,5.196,9.145,7.454,13.421h0c11.608,21.981,13.341,31.513,13.341,35.238,0,18.801-14.818,34.206-33.388,35.151-.603.016-1.202.046-1.809.046s-1.206-.03-1.809-.046Z" fill="#fff"/>
</svg>